<?xml version="1.0" encoding="utf-8"?>
<!-- Generator: Adobe Illustrator 22.1.0, SVG Export Plug-In . SVG Version: 6.00 Build 0)  -->
<svg version="1.1" id="b8075969-ef49-4240-a25e-f088236f2735"
	 xmlns="http://www.w3.org/2000/svg" xmlns:xlink="http://www.w3.org/1999/xlink" x="0px" y="0px" viewBox="0 0 933.3 629.3"
	 style="enable-background:new 0 0 933.3 629.3;" xml:space="preserve">
<style type="text/css">
	.st0{opacity:0.14;fill:#5B5B5B;}
	.st1{fill:#3F3D56;}
	.st2{fill:url(#SVGID_1_);}
	.st3{fill:url(#SVGID_2_);}
	.st4{fill:url(#SVGID_3_);}
	.st5{fill:url(#SVGID_4_);}
	.st6{opacity:0.1;enable-background:new    ;}
	.st7{fill:#2F2E41;}
	.st8{fill:#FFB9B9;}
	.st9{fill:url(#SVGID_5_);}
	.st10{fill:url(#SVGID_6_);}
	.st11{fill:url(#SVGID_7_);}
	.st12{fill:#DBDBDB;}
	.st13{fill:url(#SVGID_8_);}
	.st14{opacity:0.2;fill:none;stroke:#000000;stroke-width:2;stroke-miterlimit:10;enable-background:new    ;}
	.st15{fill:url(#SVGID_9_);}
	.st16{fill:#575A89;}
</style>
<path class="st0" d="M270.3,505.4c-56.7,7.8-113-17.2-145.1-64.6C5,263.1,91,340.1,91,232.4c0-120.8,29.5-163.8,176.3-160.8
	s76.8,69,236.8,27s-52.7,135.4,23.9,186.4S874,360.7,750,429.5C607.8,508.5,386.2,489.4,270.3,505.4z"/>
<title>digital currency</title>
<path class="st1" d="M462.7,303c-5-11.5-12.7-21.6-28.1-30.1c-8-4.5-16.5-7.9-25.4-10c6-2.8,11.5-6.5,16.3-11
	c7.1-6.3,12.4-14.3,15.6-23.3c2.9-9.1,4.1-18.7,3.5-28.2c-1.1-16.8-4.4-33.1-13.2-44.8s-21.2-20.7-37.6-27
	c-12.6-4.8-25.5-7.8-45.5-8.9V55.8l-40,25v39h-32v-41l-41-23v64h-87.1l28,48c8.7,0,14.5,0.8,17.5,2.3c2.8,1.2,5.1,3.3,6.5,6
	c1.3,2.5,1.9,8.4,1.9,17.5v173.2c0,9-0.6,14.8-1.9,17.4s-2,4.9-5.1,6.3s-3.2,1.3-11.8,1.3h-0.1l-35,48h87v64h41v-64h32v64h40v-64.4
	c26-1.3,44.5-4.7,59.4-10.3c19.3-7.2,34.1-17.7,44.7-31.5s14.9-34.9,15.8-51.2C468.8,331.9,467.2,313.2,462.7,303z M276.2,173.8
	L276.2,173.8l0-1.3h28c15.7,0,68.2-5.2,69,37.6c0.9,42.8-69,41.1-69,41.1h-28v-3.3h0V173.8z M276.2,295.8h32c6.5,0,28.9,1,37,1.4
	c3.3,0.1,6.6,0.7,9.8,1.7c1.2,0.4,2.2,0.8,3.4,1.3c4.9,1.6,9.6,3.9,13.8,7c2.7,1.8,5.2,4.1,7.1,6.7c0.9,1.2,1.6,2.4,2.4,3.7
	c1.9,3.2,3.3,6.7,4.2,10.3c1,3.5,1.4,7.1,1.5,10.7c0,7.8-1.4,14.2-5,19.7c-4.8,8.1-12.7,13.8-21.6,17.8c-23,10.4-52.5,9.7-52.5,9.7
	h-32L276.2,295.8z"/>
<linearGradient id="SVGID_1_" gradientUnits="userSpaceOnUse" x1="556.4483" y1="339.9381" x2="574.7128" y2="339.9381">
	<stop  offset="7.092085e-03" style="stop-color:#FF5D95"/>
	<stop  offset="0.641" style="stop-color:#FD94B8"/>
	<stop  offset="1" style="stop-color:#FCAEC8"/>
</linearGradient>
<circle class="st2" cx="565.6" cy="339.9" r="9.1"/>
<linearGradient id="SVGID_2_" gradientUnits="userSpaceOnUse" x1="600.7671" y1="308.083" x2="630.1753" y2="308.083">
	<stop  offset="7.092085e-03" style="stop-color:#FF5D95"/>
	<stop  offset="0.641" style="stop-color:#FD94B8"/>
	<stop  offset="1" style="stop-color:#FCAEC8"/>
</linearGradient>
<circle class="st3" cx="615.5" cy="308.1" r="14.7"/>
<linearGradient id="SVGID_3_" gradientUnits="userSpaceOnUse" x1="557.0468" y1="418.2232" x2="627.006" y2="418.2232" gradientTransform="matrix(0.9816 -0.191 0.191 0.9816 -70.097 122.0761)">
	<stop  offset="7.091872e-03" style="stop-color:#63E1DA"/>
	<stop  offset="0.3555" style="stop-color:#4BC1D7"/>
	<stop  offset="0.414" style="stop-color:#47BBD7"/>
	<stop  offset="0.7261" style="stop-color:#46BAD7"/>
	<stop  offset="1" style="stop-color:#39A3D6"/>
</linearGradient>
<path class="st4" d="M568.2,410.3c-13.1,32.2-0.9,67.5-0.9,67.5s33.3-16.8,46.4-49c13.1-32.2,0.9-67.5,0.9-67.5
	S581.2,378.1,568.2,410.3z"/>
<linearGradient id="SVGID_4_" gradientUnits="userSpaceOnUse" x1="491.4106" y1="412.6819" x2="581.3126" y2="412.6819" gradientTransform="matrix(0.966 0.2585 -0.2585 0.966 126.4122 -123.5219)">
	<stop  offset="7.091872e-03" style="stop-color:#63E1DA"/>
	<stop  offset="0.4982" style="stop-color:#4BC1D7"/>
	<stop  offset="0.5807" style="stop-color:#47BBD7"/>
	<stop  offset="1" style="stop-color:#39A9D6"/>
</linearGradient>
<path class="st5" d="M567.3,477.8c0,0-0.5-0.2-1.3-0.6c-0.7-0.3-1.6-0.8-2.8-1.4c-10.3-5.5-37.3-22.2-50.2-50.4
	c-16.2-35.3-4.4-75.5-4.4-75.5s35.1,15.8,52.3,48.2c0.7,1.4,1.5,2.8,2.1,4.3c14.1,30.7,7,65.1,4.9,73.5
	C567.5,477.1,567.3,477.8,567.3,477.8z"/>
<path class="st6" d="M360.7,376.1c-23,10.4-52.5,9.7-52.5,9.7h-32v-6.1c13-3.6,31.1-5.9,51-5.9C338.4,373.8,349.6,374.5,360.7,376.1
	z"/>
<path class="st6" d="M399.2,393.8c0,11-32.2,20-72,20s-72-9-72-20c0-5.5,8-10.5,21-14.1v6.1h32c0,0,29.6,0.7,52.5-9.7
	C383.6,379.4,399.2,386.1,399.2,393.8z"/>
<rect x="305.7" y="269.3" class="st7" width="30.6" height="30.7"/>
<path class="st8" d="M317.1,291c0,0,2.5,8.9-1.9,9.5c-2.8,0.4-5.4,1.5-7.6,3.2l8.2,10.8h15.2l9.5-9.5c0,0-12.7-9.5-10.1-15.2
	S317.1,291,317.1,291z"/>
<path class="st6" d="M317.1,291c0,0,2.5,8.9-1.9,9.5c-2.8,0.4-5.4,1.5-7.6,3.2l8.2,10.8h15.2l9.5-9.5c0,0-12.7-9.5-10.1-15.2
	S317.1,291,317.1,291z"/>
<polygon class="st8" points="320.9,401.3 335.5,406.3 345.6,407 345,398.1 324.1,391.9 "/>
<linearGradient id="SVGID_5_" gradientUnits="userSpaceOnUse" x1="339.6081" y1="399.7573" x2="374.2346" y2="399.7573">
	<stop  offset="7.091872e-03" style="stop-color:#63E1DA"/>
	<stop  offset="0.4982" style="stop-color:#4BC1D7"/>
	<stop  offset="0.5807" style="stop-color:#47BBD7"/>
	<stop  offset="1" style="stop-color:#39A9D6"/>
</linearGradient>
<path class="st9" d="M339.6,399.4c0,0,0,8.9,1.3,8.9s18.4-1.9,23.5,0s12.7-5.1,8.9-8.9s-10-9.5-13.9-8.2s-19.7,4.4-19.7,4.4
	L339.6,399.4z"/>
<linearGradient id="SVGID_6_" gradientUnits="userSpaceOnUse" x1="288.7351" y1="399.5826" x2="313.934" y2="399.5826">
	<stop  offset="7.091872e-03" style="stop-color:#63E1DA"/>
	<stop  offset="0.4982" style="stop-color:#4BC1D7"/>
	<stop  offset="0.5807" style="stop-color:#47BBD7"/>
	<stop  offset="1" style="stop-color:#39A9D6"/>
</linearGradient>
<path class="st10" d="M293,391.1c0,0-7.6,15.2-2.5,16.5s10.8-0.6,11.4-1.3s9.5-3.2,10.8-1.9s1.3-5.1,1.3-5.1L293,391.1z"/>
<path class="st7" d="M299.4,370.2c0,0-12,16.5-3.2,20.9s51.3,4.4,54.5,0s4.4-18.4,0-19.7S299.4,370.2,299.4,370.2z"/>
<linearGradient id="SVGID_7_" gradientUnits="userSpaceOnUse" x1="292.9213" y1="382.3323" x2="353.5742" y2="382.3323">
	<stop  offset="7.091872e-03" style="stop-color:#63E1DA"/>
	<stop  offset="0.4982" style="stop-color:#4BC1D7"/>
	<stop  offset="0.5807" style="stop-color:#47BBD7"/>
	<stop  offset="1" style="stop-color:#39A9D6"/>
</linearGradient>
<path class="st11" d="M299.4,370.2c0,0-12,16.5-3.2,20.9s51.3,4.4,54.5,0s4.4-18.4,0-19.7S299.4,370.2,299.4,370.2z"/>
<circle class="st8" cx="322.2" cy="280.8" r="14.6"/>
<path class="st12" d="M299.4,303.6l12.7-2.5c0,0,3.2,10.1,13.3,8.2s12.7-8.2,12.7-8.2s7.6,3.2,8.2,3.2s8.9,3.2,8.9,5.1
	s-9.5,20.9-9.5,20.9l1.3,34.2l-46.9-1.3l3.2-33.6L299.4,303.6z"/>
<path class="st8" d="M292.4,320.1c0,0-3.8,33.6-1.3,36.1s12.7,9.5,12.7,9.5v-7.6l-5.1-9.5l5.1-22.2L292.4,320.1z"/>
<path class="st8" d="M358,319.2c0,0-2.2,34.5-2.2,35.8s-5.7,5.7-7.6,5.7s-3.2-3.2-3.2-3.2l4.4-5.1l-3.2-26L358,319.2z"/>
<linearGradient id="SVGID_8_" gradientUnits="userSpaceOnUse" x1="322.4932" y1="379.457" x2="381.15" y2="379.457">
	<stop  offset="7.091872e-03" style="stop-color:#63E1DA"/>
	<stop  offset="0.4982" style="stop-color:#4BC1D7"/>
	<stop  offset="0.5807" style="stop-color:#47BBD7"/>
	<stop  offset="1" style="stop-color:#39A9D6"/>
</linearGradient>
<path class="st13" d="M352,367.7c0,0,28.5-15.8,29.2,0s-14.6,22.2-14.6,22.2s-39.3,11.8-40.9,7.5s-4.8-11.3-2.2-11.9s5.7-1.9,7-0.6
	s17.1-9.5,17.1-9.5L352,367.7z"/>
<path class="st14" d="M365.3,365.8c0,0-5.7,2.5-7.6,4.4s-10.1,5.1-10.1,5.1"/>
<path class="st12" d="M303.2,304.9l-3.8-1.3c0,0-13.9,14.6-9.5,18.4s7,5.1,8.2,6.3s7.6,1.9,7.6,1.9L303.2,304.9z"/>
<path class="st12" d="M349.4,308.1l5.7,1.3c0,0,4.4,9.5,5.7,10.8s-1.9,0.6-3.8,3.2s-3.8,7-7.6,7s-8.9-6.3-8.9-6.3L349.4,308.1z"/>
<linearGradient id="SVGID_9_" gradientUnits="userSpaceOnUse" x1="267.261" y1="385.3031" x2="327.8804" y2="385.3031">
	<stop  offset="7.091872e-03" style="stop-color:#63E1DA"/>
	<stop  offset="0.4982" style="stop-color:#4BC1D7"/>
	<stop  offset="0.5807" style="stop-color:#47BBD7"/>
	<stop  offset="1" style="stop-color:#39A9D6"/>
</linearGradient>
<path class="st15" d="M300.6,373.4c0,0-24.1-17.1-32.3-4.4s35.5,29.8,41.8,32.3s12,5.1,12,5.1s5.7-13.9,5.7-16.5s-4.4-2.5-5.7-2.5
	s-7-1.3-8.2-3.2S300.6,373.4,300.6,373.4z"/>
<path class="st14" d="M287.3,368.9c0,0,6.3,5.1,12,6.3s7.6,4.4,7.6,4.4"/>
<path class="st16" d="M296.2,345.1l0.5,26.8c0,1.8,1.6,3.3,3.4,3.3l49.9-0.6c1.8,0,3.2-1.4,3.3-3.2l1.5-26.3
	c0.1-1.9-1.3-3.4-3.2-3.5c-0.1,0-0.1,0-0.2,0h-52C297.8,341.7,296.2,343.2,296.2,345.1C296.2,345.1,296.2,345.1,296.2,345.1z"/>
<path class="st7" d="M290.5,303.8c1.4-3,3.2-5.8,4.1-9c1-3.8,0.6-7.8,0.5-11.8c-0.2-3.5,0.1-7,0.9-10.4c0.8-3.4,2.6-6.5,5.1-9
	c6.6-5.9,18.8-6.4,26.9-3.9c3.2,1,6.6,2.8,7.4,6.1c0.1,0.5,0.2,1,0.3,1.5c0.7,2.4,3.1,3.9,4,6.3c1.2,3-0.6,6.3-0.9,9.6
	c-0.3,3.8,1.6,7.3,3.4,10.7c1.1,2,2.2,4.1,2.1,6.3c-0.1,1.2-0.5,2.4-1.1,3.5c-2.4,3.9-6.6,6.3-11.2,6.4c-1.5,0.1-2.9-0.2-4.2-1
	c-2-1.4-2.6-4.1-2.1-6.5s1.6-4.5,2.6-6.7c0.3-0.7,0.5-1.4,0.8-2.1c6.8-3.8,9.3-12.5,5.5-19.3c-3.8-6.8-12.5-9.3-19.3-5.5
	c-6.8,3.8-9.3,12.5-5.5,19.3c2.1,3.7,5.7,6.3,9.9,7.1c0.7,3.6,0.4,7.3-0.9,10.7c-1.2,2.8-2.7,5.4-4.5,7.8c-0.7,1.2-1.7,2.3-2.9,3.2
	c-0.8,0.5-1.6,0.8-2.4,1c-3.6,1.2-7.4,2.1-11.1,1.6s-7.4-2.8-8.7-6.3C288.2,310.3,289.1,306.8,290.5,303.8z"/>
<ellipse class="st7" cx="321.5" cy="272.6" rx="15.5" ry="8.8"/>
</svg>
